<svg xmlns="http://www.w3.org/2000/svg" id="prefix__Layer_2" width="172.698" height="148.102" viewBox="0 0 172.698 148.102">
    <defs>
        <style>
            .prefix__cls-1{fill:#1d1c1b}.prefix__cls-2{fill:#fff}
        </style>
    </defs>
    <g id="prefix__Layer_1">
        <path id="prefix__Path_13977" d="M391.867 257.4c.361.541.736 1.074 1.107 1.612q-.73.849-1.457 1.7c-.375-.49-.754-.973-1.121-1.464.495-.613.992-1.225 1.471-1.848z" class="prefix__cls-1" transform="translate(-223.049 -147.062)"/>
        <path id="prefix__Path_13978" d="M186.7 261.44a27.7 27.7 0 0 1 3.8-2.325c-.195.429-.137 1.06-.635 1.291a34.167 34.167 0 0 0-3.2 2.2c.007-.294.025-.875.035-1.166z" class="prefix__cls-1" transform="translate(-106.649 -148.042)"/>
        <path id="prefix__Path_13979" d="M156.454 261.811q.746-.827 1.493-1.662.579.725 1.168 1.453c-.526.584-1.046 1.179-1.554 1.777q-.561-.784-1.107-1.568z" class="prefix__cls-1" transform="translate(-89.389 -148.633)"/>
        <path id="prefix__Path_13980" d="M33.382 265.352a13.957 13.957 0 0 1 5.516-3.075c-.169.862-.35 1.72-.53 2.578a21.737 21.737 0 0 0-4.049 1.882c1.4 1.4 2.729 2.855 4.06 4.319-.346.973-.71 1.936-1.085 2.9-3.681.072-7.366.011-11.047.032a6.873 6.873 0 0 1-2.538 4.622c-.645-.782-1.28-1.572-1.918-2.358a19.845 19.845 0 0 0 3.2-1.972 24.819 24.819 0 0 0-1.936-4.633c.6-.833 1.2-1.666 1.8-2.506.415 1.276.808 2.56 1.136 3.861 3.328 0 6.652 0 9.979.014-.862-.822-1.713-1.658-2.574-2.484q-.011-1.59-.014-3.18z" class="prefix__cls-1" transform="translate(-12.45 -149.849)"/>
        <path id="prefix__Path_13981" d="M167.267 265.339a14.037 14.037 0 0 1 5.523-3.079c-.177.862-.357 1.72-.534 2.581a22.082 22.082 0 0 0-4.06 1.886c1.4 1.4 2.744 2.855 4.07 4.326-.353.991-.732 1.976-1.168 2.938-3.757-.036-7.517-.011-11.274-.007a3.83 3.83 0 0 1-1.835-.44c-1.572.919-3.555.227-5.3.425q.416-1.5.88-2.978c1.186 0 2.372.007 3.555 0-.552-1.168-1.128-2.322-1.705-3.479.566-.8 1.136-1.594 1.709-2.387a23.833 23.833 0 0 1 1.396 5.875q5.662-.016 11.328 0a18.946 18.946 0 0 1-2.545-2.643c-.087-1.003-.04-2.012-.04-3.018z" class="prefix__cls-1" transform="translate(-87.24 -149.84)"/>
        <path id="prefix__Path_13982" d="M319.255 265.371a12.322 12.322 0 0 1 5.458-3.137c-.191.872-.375 1.741-.562 2.614a20.721 20.721 0 0 0-4.031 1.857c1.4 1.4 2.729 2.866 4.052 4.341-.35.977-.721 1.95-1.121 2.909q-7.89.011-15.78 0c-1.049.177-1.615-.872-1.777-1.741-.314-1.738-.065-3.814 1.543-4.853-.079 1.11-.891 2.61.094 3.526 2.39.227 4.806.025 7.207.09-.328-1.006-.635-2.015-.927-3.028.541-.714 1.078-1.435 1.626-2.145a24.29 24.29 0 0 1 .656 5.174h6.079c-.865-.8-1.712-1.626-2.556-2.452-.001-1.049-.065-2.106.039-3.155z" class="prefix__cls-1" transform="translate(-174.474 -149.825)"/>
        <path id="prefix__Path_13983" d="M145.545 265.459c.584-.642 1.165-1.287 1.749-1.929q.352 5.435.494 10.881c-.57.624-1.136 1.255-1.7 1.886-.146-3.617-.269-7.233-.543-10.838z" class="prefix__cls-1" transform="translate(-83.156 -150.566)"/>
        <path id="prefix__Path_13984" d="M389.611 264.587c.393-.386.732-.815 1.125-1.2q.557.757 1.114 1.507-.773.865-1.536 1.734l-.93-1.262-1.082 1.283c-.371-.5-.739-1.009-1.11-1.511.483-.595.97-1.193 1.46-1.785q.475.617.959 1.234z" class="prefix__cls-1" transform="translate(-221.218 -150.465)"/>
        <path id="prefix__Path_13985" d="M5.072 271.515c-.375-2.827 1.68-6.053 4.745-6.043-.177.937-.371 1.868-.57 2.8a7.6 7.6 0 0 0-3.468 1.41 33.082 33.082 0 0 0 3.382 2.2 6.1 6.1 0 0 1-2.03 5.509 4.65 4.65 0 0 1-4.131.682c-1.536-1.179-1.709-3.349-1.651-5.138-.112-1.031.7-1.741 1.276-2.477.094 1.478-.44 3.45.923 4.485 1.72.66 3.472-.44 4.921-1.287-1.137-.692-2.543-1.067-3.397-2.141z" class="prefix__cls-1" transform="translate(-.764 -151.675)"/>
        <path id="prefix__Path_13986" d="M23.111 267.585l1.467-1.709c.386.5.768.991 1.157 1.489-.512.577-1.02 1.157-1.525 1.734-.367-.504-.731-1.009-1.099-1.514z" class="prefix__cls-1" transform="translate(-13.204 -151.906)"/>
        <path id="prefix__Path_13987" d="M116.893 271.518c-.379-2.83 1.676-6.057 4.741-6.046-.177.934-.371 1.868-.566 2.8a8.07 8.07 0 0 0-3.23 1.2.76.76 0 0 0 .454.746c.858.606 1.785 1.1 2.686 1.648a6.093 6.093 0 0 1-2.03 5.52 4.815 4.815 0 0 1-4.15.71c-1.658-1.258-1.752-3.62-1.648-5.523 0-.89.786-1.464 1.273-2.12.072 1.475-.48 3.49.923 4.5 1.731.638 3.486-.436 4.939-1.3-1.135-.689-2.534-1.067-3.392-2.135z" class="prefix__cls-1" transform="translate(-64.631 -151.675)"/>
        <path id="prefix__Path_13988" d="M312.16 269.139l1.493-1.723c.31.407.62.815.93 1.219.353-.407.721-.8 1.074-1.208.407.5.8 1.009 1.215 1.511q-.817.855-1.622 1.713c-.292-.425-.58-.847-.869-1.273q-.557.638-1.11 1.28-.558-.758-1.111-1.519z" class="prefix__cls-1" transform="translate(-178.35 -152.785)"/>
        <path id="prefix__Path_13989" d="M200.912 269.249a10.932 10.932 0 0 1 3.912 4.554 4.813 4.813 0 0 1-1.3 4.175 2.458 2.458 0 0 1-3.919-1.085c-.353-1.576.44-3.1 1.251-4.388-.2-.155-.588-.461-.786-.613.283-.88.564-1.763.842-2.643zm.508 6.255a2.836 2.836 0 0 0 2.6-.332 21.67 21.67 0 0 0-2.5-2.311c-.249.811-1.078 2.008-.1 2.643z" class="prefix__cls-1" transform="translate(-113.992 -153.833)"/>
        <path id="prefix__Path_13990" d="M216.691 271.342c.555-.8 1.107-1.6 1.669-2.387.952 2.8 2.037 6 .544 8.822-1.648.032-3.3.032-4.946.014.278-1 .573-2 .9-2.985 1.165.018 2.329.018 3.494.007-.552-1.16-1.096-2.321-1.661-3.471z" class="prefix__cls-1" transform="translate(-122.243 -153.665)"/>
        <path id="prefix__Path_13991" d="M76.067 275.566c.577-1.886.851-4.161 2.672-5.307a8.645 8.645 0 0 1 2.033 4.337c.433 1.475-.382 2.891-.743 4.29-1.114-.324-2.228-.649-3.353-.945-.386.2-.714.6-1.183.584-2.873.083-5.75-.05-8.624.058a6.756 6.756 0 0 1-2.556 4.582c-.635-.79-1.269-1.576-1.9-2.365a8.972 8.972 0 0 0 3.151-2.127 23.825 23.825 0 0 0-1.882-4.471c.6-.826 1.193-1.658 1.781-2.495q.66 1.9 1.15 3.861c3.152-.006 6.303.001 9.454-.002zm1.356-.364q1 .314 1.994.617a15.354 15.354 0 0 0-.833-2.992 9.747 9.747 0 0 0-1.161 2.376z" class="prefix__cls-1" transform="translate(-35.66 -154.41)"/>
        <path id="prefix__Path_13992" d="M255.969 273.55c.494-.71.981-1.428 1.485-2.131.519 2.553.916 5.321-.213 7.773-4.683.036-9.363.007-14.043.018-.054-.242-.159-.721-.213-.959-.263.321-.523.645-.782.966-3.248.007-6.5-.061-9.749.043a6.64 6.64 0 0 1-2.524 4.572c-.635-.79-1.273-1.576-1.911-2.365a13.236 13.236 0 0 0 3.23-2.073 34.991 34.991 0 0 0-1.958-4.532q.9-1.238 1.785-2.5.654 1.909 1.154 3.868c3.522-.007 7.048 0 10.571 0-.162-.887-.328-1.774-.479-2.664.508-.645 1.013-1.3 1.521-1.943.205 1.536.382 3.075.588 4.611 1.813 0 3.623 0 5.437-.011-.112-.537-.22-1.078-.328-1.615.469-.649.927-1.309 1.388-1.968.144 1.2.314 2.394.454 3.591h1.8a15.221 15.221 0 0 1-.234-1.568 17.63 17.63 0 0 1 1.32-1.95q.216 1.758.411 3.515h1.9c-.206-.897-.415-1.788-.61-2.678z" class="prefix__cls-1" transform="translate(-130.277 -155.073)"/>
        <path id="prefix__Path_13993" d="M371.114 273.568c.49-.7.97-1.413 1.456-2.124a18.221 18.221 0 0 1 .739 4.972 15.425 15.425 0 0 1-.963 2.794c-5.57.029-11.14 0-16.707.014a6.728 6.728 0 0 1-2.585 4.6c-.638-.779-1.262-1.565-1.886-2.351a17.278 17.278 0 0 0 3.194-1.979 24.945 24.945 0 0 0-1.94-4.618q.9-1.233 1.813-2.459c.418 1.262.8 2.535 1.129 3.825h9.691c-.108-.537-.216-1.078-.321-1.615.461-.649.919-1.3 1.381-1.947q.216 1.779.4 3.562c.595 0 1.193.007 1.8.011a10.81 10.81 0 0 1-.2-1.594 13.445 13.445 0 0 1 1.33-1.914c.123 1.168.245 2.34.382 3.508l1.9-.011q-.316-1.342-.613-2.674z" class="prefix__cls-1" transform="translate(-200.637 -155.087)"/>
        <path id="prefix__Path_13994" d="M134.918 276.125c.606-.829 1.208-1.662 1.8-2.5.836 2.578 1.774 5.321 1.146 8.058a6.679 6.679 0 0 1-2.293 3.411c-.645-.782-1.28-1.572-1.918-2.361a13.681 13.681 0 0 0 3.238-2.084 36.716 36.716 0 0 0-1.972-4.521z" class="prefix__cls-1" transform="translate(-76.361 -156.332)"/>
        <path id="prefix__Path_13995" d="M258.778 294.555q.546-.736 1.1-1.464c.371.407.75.818 1.125 1.229q.449-.638.9-1.269c.508.584 1.024 1.172 1.536 1.759-.386.5-.775.991-1.157 1.493q-.53-.616-1.056-1.233c-.332.4-.663.8-.991 1.2q-.735-.855-1.457-1.715z" class="prefix__cls-1" transform="translate(-147.85 -167.432)"/>
        <path id="prefix__Path_13996" d="M261.966 300.341c.361-.5.721-1.006 1.085-1.511q.773.876 1.54 1.756c-.389.494-.779.984-1.165 1.478q-.726-.864-1.46-1.723z" class="prefix__cls-1" transform="translate(-149.672 -170.734)"/>
        <path id="prefix__Path_13997" d="M351.248 305.59q.492.579.991 1.157l1.064-1.165 1.146 1.431q-.768.9-1.525 1.813-.465-.649-.927-1.3-.552.644-1.107 1.287c-.371-.516-.732-1.031-1.1-1.543.485-.562.968-1.121 1.458-1.68z" class="prefix__cls-1" transform="translate(-199.85 -174.592)"/>
        <path id="prefix__Path_13998" d="M236.1 308.785c.483-.6.973-1.193 1.464-1.788q.519.622 1.042 1.244l1.032-1.241c.4.5.8 1.006 1.2 1.514q-.779.876-1.554 1.763-.476-.644-.952-1.283c-.371.425-.735.858-1.1 1.287-.385-.501-.752-1.003-1.132-1.496z" class="prefix__cls-1" transform="translate(-134.896 -175.399)"/>
        <path id="prefix__Path_13999" d="M285.206 310.344c.584-.645 1.168-1.287 1.767-1.918.195 3.605.386 7.211.5 10.82q-.876.979-1.745 1.969c-.064-3.632-.266-7.255-.522-10.871z" class="prefix__cls-1" transform="translate(-162.95 -176.216)"/>
        <path id="prefix__Path_14000" d="M306.578 310.335q.871-1 1.767-1.976c.206 2.726.292 5.458.418 8.188.523 0 1.046-.007 1.572-.007a4.065 4.065 0 0 1 1.446-4.106c-.238-.2-.472-.4-.707-.595q.335-1.439.649-2.877a10.876 10.876 0 0 1 4.672 7.571h2.83c-.306-.984-.616-1.965-.937-2.942.541-.746 1.1-1.482 1.676-2.2.58 2.686 1.049 5.6-.227 8.17a16.656 16.656 0 0 1-4.276-.285c-.1.177-.3.53-.393.707q-1.563-.681-3.151-1.287c-1.309 1.258-3.18.8-4.813.858-.173-3.072-.234-6.154-.526-9.219zm5.271 3.508c-.945.314-.934 1.969.22 1.81 1.229.047 1.211-2.6-.22-1.81zm1.284 2.488c.764.314 1.532.627 2.311.919a11.685 11.685 0 0 0-1.619-3.27c-.227.786-.455 1.568-.692 2.351z" class="prefix__cls-1" transform="translate(-175.16 -176.178)"/>
        <path id="prefix__Path_14001" d="M366.033 310.312c.588-.645 1.175-1.294 1.77-1.936.2 3.609.375 7.214.5 10.827q-.876 1-1.756 1.979c-.06-3.627-.247-7.251-.514-10.87z" class="prefix__cls-1" transform="translate(-209.13 -176.187)"/>
        <path id="prefix__Path_14002" d="M396.555 310.343q.871-1 1.767-1.976c.177 3.605.447 7.2.71 10.8-.681.627-1.309 1.305-1.929 1.987-.094-3.608-.242-7.217-.548-10.811z" class="prefix__cls-1" transform="translate(-226.568 -176.183)"/>
        <path id="prefix__Path_14003" d="M172.925 313.935q.681-.779 1.359-1.565c.361 2.149.681 4.3 1.042 6.453 1.55 0 3.1 0 4.658-.011-.31-.977-.62-1.954-.945-2.928.541-.746 1.089-1.489 1.655-2.217.606 2.682 1.078 5.635-.224 8.195-2.156-.025-4.312-.011-6.468-.011-.083-.772-.155-1.547-.213-2.318-.267.573-.606 1.107-.919 1.658-1.193-.263-2.362-.634-3.548-.93a21.439 21.439 0 0 1 1.035-3.414 19.2 19.2 0 0 1 2.567-2.134zm-1.907 4.024c.847.177 1.694.35 2.545.5-.126-.746-.242-1.493-.364-2.239-.728.577-1.456 1.154-2.181 1.738z" class="prefix__cls-1" transform="translate(-96.742 -178.47)"/>
        <path id="prefix__Path_14004" d="M1.385 314.372l1.179.011a11.693 11.693 0 0 0 0 10.25l-1.219-.043A13.881 13.881 0 0 1 0 319.632a12.465 12.465 0 0 1 1.385-5.26z" class="prefix__cls-1" transform="translate(0 -179.613)"/>
        <path id="prefix__Path_14005" d="M104.069 314.095a11.143 11.143 0 0 1 3.894 4.37 4.759 4.759 0 0 1-1.114 4.222 2.443 2.443 0 0 1-3.93-.7c-.523-1.637.339-3.259 1.11-4.658-.173-.148-.523-.443-.7-.591.242-.884.491-1.763.74-2.643zm.292 6.075a2.463 2.463 0 0 0 2.852-.216 24.532 24.532 0 0 0-2.549-2.268c-.18.786-.833 1.712-.3 2.484z" class="prefix__cls-1" transform="translate(-58.71 -179.455)"/>
        <path id="prefix__Path_14006" d="M294.646 316.144c.552-.779 1.092-1.565 1.644-2.343.973 2.816 2.08 6.043.519 8.865h-4.925c.285-1.017.588-2.023.912-3.029 1.157 0 2.318.007 3.476 0l-1.626-3.493z" class="prefix__cls-1" transform="translate(-166.765 -179.287)"/>
        <path id="prefix__Path_14007" d="M90.961 314.356l1.229.043a11.643 11.643 0 0 1 1.309 4.892 12.543 12.543 0 0 1-1.32 5.289c-.411.011-.818.022-1.226.036a11.621 11.621 0 0 0 .008-10.26z" class="prefix__cls-1" transform="translate(-51.965 -179.604)"/>
        <path id="prefix__Path_14008" d="M122.926 317.824a11.093 11.093 0 0 1 1.673-3.064c1.384-.335 2.419.9 3.209 1.842a27.387 27.387 0 0 0 3 3.7q-.546 1.444-1.1 2.888c-2.682 0-5.365-.011-8.043.007a9.089 9.089 0 0 1-3.01 4.572c-.681-.754-1.327-1.54-1.972-2.322a18.623 18.623 0 0 0 3.335-2.181c-1.172-.44-2.765-.714-3.169-2.1a7.619 7.619 0 0 1 .88-5.3 1.486 1.486 0 0 1 2.289-.472c1.251 1.255 1.529 3.108 1.886 4.77 2.124-.007 4.247 0 6.374 0-1.52-1.264-3.178-2.935-5.352-2.34zm-4.745 1.233c.418.88 1.471 1.01 2.3 1.229a4.823 4.823 0 0 0-1.013-2.542c-.771-.393-1.788.57-1.291 1.312z" class="prefix__cls-1" transform="translate(-66.665 -179.803)"/>
        <path id="prefix__Path_14009" d="M152.134 316.472c.386-.768 1.4-1.435 2.2-.808 1.265 1.009 1.662 2.711 1.987 4.222a8.478 8.478 0 0 1-3.223 8.278c-.617-.779-1.24-1.554-1.864-2.325a16.906 16.906 0 0 0 3.259-2.178c-1.161-.425-2.722-.739-3.111-2.109a7.822 7.822 0 0 1 .753-5.08zm.577 2.989c.371.909 1.457 1.013 2.282 1.219a3.611 3.611 0 0 0-1.626-2.881c-.307.501-.967.995-.656 1.662z" class="prefix__cls-1" transform="translate(-86.405 -180.21)"/>
        <path id="prefix__Path_14010" d="M199.675 316.594c.407-.829 1.507-1.658 2.372-.919 1.363 1.208 1.644 3.144 1.987 4.842.53.007 1.064.018 1.594.029-.115-.519-.231-1.031-.346-1.547.465-.671.93-1.341 1.406-2.008.141 1.172.281 2.347.4 3.522.613.014 1.229.022 1.846.036l-.357-1.511q.7-1 1.41-1.99c.151 1.161.285 2.318.407 3.483h1.9q-.3-1.287-.617-2.574c.49-.746.981-1.5 1.482-2.235a24.25 24.25 0 0 1 .548 4.81c1.381.011 2.762.011 4.143.007-.31-.981-.617-1.965-.941-2.942q.811-1.125 1.648-2.228c.627 2.686 1.064 5.6-.173 8.191-4.849.011-9.7 0-14.555 0a8.948 8.948 0 0 1-3.054 4.586c-.635-.782-1.273-1.554-1.925-2.315a17.761 17.761 0 0 0 3.32-2.2c-1.233-.443-2.96-.8-3.227-2.333a7.842 7.842 0 0 1 .732-4.704zm.7 2.881c.418.854 1.431.973 2.257 1.161-.242-.9-.3-2.037-1.172-2.585a.985.985 0 0 0-1.085 1.424z" class="prefix__cls-1" transform="translate(-113.609 -180.181)"/>
        <path id="prefix__Path_14011" d="M256.1 316.151a1.437 1.437 0 0 1 2.3-.206 9.059 9.059 0 0 1 1.705 4.669 8.745 8.745 0 0 1-3.2 7.6c-.671-.764-1.3-1.561-1.929-2.358a17.3 17.3 0 0 0 3.274-2.156c-1.233-.433-2.931-.815-3.187-2.347a7.606 7.606 0 0 1 1.037-5.202zm.26 3c.123 1.136 1.456 1.348 2.347 1.586a4.417 4.417 0 0 0-1.381-2.913c-.332.418-1.074.685-.966 1.327z" class="prefix__cls-1" transform="translate(-145.668 -180.238)"/>
        <path id="prefix__Path_14012" d="M348.93 317.119c.321-.865 1.028-1.86 2.087-1.687a3.665 3.665 0 0 1 1.835 2.322 9.2 9.2 0 0 1 .364 6.086 5.786 5.786 0 0 1-5.841 4.005 2.91 2.91 0 0 1-1.929-2.12 8.76 8.76 0 0 1-.26-4.074 10.172 10.172 0 0 1 1.2-1.705c.1 1.525-.508 3.623 1.017 4.629 1.489.57 3.014-.177 4.3-.9-1.139-.451-2.679-.707-3.155-2.015a7.465 7.465 0 0 1 .382-4.541zm.912 2.358c.386.894 1.435 1 2.264 1.168a4.23 4.23 0 0 0-1.46-2.855c-.414.429-1.262 1-.8 1.687z" class="prefix__cls-1" transform="translate(-197.146 -180.207)"/>
        <path id="prefix__Path_14013" d="M384.439 316.276a1.454 1.454 0 0 1 2.264-.454 8.049 8.049 0 0 1 1.738 4.074 8.639 8.639 0 0 1-3.129 8.289c-.653-.764-1.28-1.55-1.911-2.333a15.194 15.194 0 0 0 3.248-2.188c-1.168-.411-2.718-.732-3.1-2.105a7.608 7.608 0 0 1 .89-5.283zm.368 2.884c.126 1.132 1.453 1.341 2.347 1.543a5.067 5.067 0 0 0-1.309-2.873c-.4.4-1.186.617-1.038 1.331z" class="prefix__cls-1" transform="translate(-219.052 -180.226)"/>
        <path id="prefix__Path_14014" d="M19.311 318.438c.35-.375.7-.746 1.053-1.121.1 1.846.191 3.692.252 5.541l1.406.032c-.148-.8-.779-1.756-.079-2.462a3 3 0 0 1 3.591-1.19c-.2.49-.4.977-.606 1.467a5.054 5.054 0 0 0-2.776.166c.278.671.357 1.525 1.024 1.947a23.051 23.051 0 0 0 2.679-.26c-.195.566-.4 1.128-.595 1.694a18.036 18.036 0 0 1-5.585.418c-.082-2.079-.216-4.156-.364-6.232z" class="prefix__cls-1" transform="translate(-11.033 -181.296)"/>
        <path id="prefix__Path_14015" d="M59.859 318.426c.346-.382.7-.757 1.042-1.136.115 1.849.173 3.706.288 5.556.278.007.829.018 1.107.022a3.008 3.008 0 0 1 1.031-2.935l-.5-.627c.137-.58.27-1.161.4-1.738a8.084 8.084 0 0 1 3.068 5.289h1.139l-.285-1.222c.281-.371.562-.743.844-1.11.072.779.144 1.554.224 2.333h1.464c-.068-.3-.2-.887-.263-1.183q.395-.579.79-1.147c.09.772.173 1.55.26 2.325h1.471l-.483-1.976c.321-.375.624-.768.952-1.139a8.995 8.995 0 0 1-.234 4.943 56.077 56.077 0 0 1-6.468-.195l-.4.407c-.656-.281-1.312-.559-1.976-.822a4.768 4.768 0 0 1-3.111.617c-.057-2.094-.219-4.178-.36-6.262zm3.782 3.807c.05-.472.991-1.532.011-1.59-1.035.151-.869 1.32-.011 1.59zm.912-1.323c-.162.519-.324 1.042-.487 1.561q.8.281 1.608.559a15.268 15.268 0 0 0-1.121-2.12z" class="prefix__cls-1" transform="translate(-34.2 -181.281)"/>
        <path id="prefix__Path_14016" d="M274.976 320.959c.609-.818 1.2-1.64 1.8-2.466.955 2.625 1.886 5.513 1.125 8.307a6.816 6.816 0 0 1-2.286 3.144c-.635-.786-1.262-1.576-1.868-2.383a16.789 16.789 0 0 0 3.173-1.961 27.081 27.081 0 0 0-1.94-4.64z" class="prefix__cls-1" transform="translate(-156.4 -181.968)"/>
        <path id="prefix__Path_14017" d="M372.811 320.972c.606-.811 1.2-1.626 1.8-2.444.891 2.672 1.878 5.577 1.049 8.393a6.492 6.492 0 0 1-2.228 3.014c-.624-.775-1.247-1.547-1.886-2.307a17.169 17.169 0 0 0 3.212-2.041 29.423 29.423 0 0 0-1.947-4.615z" class="prefix__cls-1" transform="translate(-212.277 -181.988)"/>
        <path id="prefix__Path_14018" d="M8.78 325a7.057 7.057 0 0 1 1.774-3.681 5.569 5.569 0 0 1 .883 5.848 30.744 30.744 0 0 0-3.212-.8c-.231 1.507.595 3.313-.638 4.514-.141-1.467-.314-2.935-.339-4.409-.058-.88.904-1.165 1.532-1.472zm.815-.144c.544.191 1.085.379 1.633.562-.231-.836-.494-1.662-.8-2.47-.288.631-.562 1.269-.836 1.907z" class="prefix__cls-1" transform="translate(-4.139 -183.583)"/>
        <path id="prefix__Path_14019" d="M43.8 325.165a8.059 8.059 0 0 1 1.709-3.829 5.312 5.312 0 0 1 .973 5.848c-.754-.216-1.511-.443-2.261-.681-1.273.6-1.388 2.372-2.772 2.8-.876.364-2.152.552-2.7-.436a4.133 4.133 0 0 1 .029-4.308c.159.941-.076 2.124.71 2.834 1.107.66 2.383.09 3.421-.407-.552-.209-1.121-.371-1.68-.562.072-.418.141-.836.209-1.258.791.003 1.577-.005 2.362-.001zm1.576-2.2c-.238.649-.458 1.309-.667 1.972.523.159 1.046.314 1.576.465a12.377 12.377 0 0 0-.909-2.437z" class="prefix__cls-1" transform="translate(-21.801 -183.592)"/>
        <path id="prefix__Path_14020" d="M134.731 339.572c.49-.562.984-1.121 1.478-1.684.375.476.757.945 1.136 1.42-.494.609-.988 1.222-1.475 1.842-.378-.525-.757-1.055-1.139-1.578z" class="prefix__cls-1" transform="translate(-76.977 -193.049)"/>
        <path id="prefix__Path_14021" d="M186.112 339.5l1.5-1.727q.481.616.97 1.233c.339-.415.681-.829 1.02-1.24.393.494.793.984 1.186 1.482-.512.58-1.028 1.161-1.539 1.745l-.909-1.244c-.361.422-.725.836-1.082 1.262-.378-.511-.764-1.011-1.146-1.511z" class="prefix__cls-1" transform="translate(-106.333 -192.977)"/>
        <path id="prefix__Path_14022" d="M332.045 339.548c.49-.566.973-1.132 1.46-1.7l1.139 1.485c-.512.591-1.02 1.183-1.518 1.785q-.535-.786-1.081-1.57z" class="prefix__cls-1" transform="translate(-189.711 -193.025)"/>
        <path id="prefix__Path_14023" d="M232.547 49.944c4.779-7.505 9.385-15.13 14.045-22.728-6.526-4.156-13.158-8.141-19.724-12.231-1.747 2.833-3.521 5.666-5.268 8.512-1.231-7.823-2.542-15.66-3.773-23.5Q206.272 1.926 194.7 3.759s1.4 8.181 2.131 12.271c1.152 6.513 2.078 13.065 3.2 19.578 5.2-.794 10.4-1.668 15.607-2.515-1.84 3.177-3.826 6.261-5.758 9.359 4.09 2.542 8.128 5.136 12.258 7.6-4.117 2.449-8.154 5.07-12.244 7.558 1.893 3.137 3.905 6.222 5.758 9.385-3.561-.556-7.108-1.138-10.656-1.681-1.628-.278-4.858-.821-4.858-.821s-2.33 14.4-3.654 21.775L194.7 96.394c7.7 1.31 23.1 3.879 23.1 3.879 1.244-7.889 2.568-15.766 3.8-23.655 1.747 2.833 3.521 5.652 5.255 8.5 6.619-4.077 13.25-8.141 19.843-12.271-4.845-7.561-9.491-15.239-14.151-22.903zm-31.359-15.805q-2.482-14.674-4.779-29.36c6.777-1.059 13.542-2.2 20.306-3.27 1.2 7.863 2.608 15.7 3.746 23.576a44.352 44.352 0 0 1-3.852 6.447c-5.083 1.111-10.298 1.707-15.421 2.607zm10.51 7.889c5.281-8.379 10.364-16.864 15.633-25.243 5.838 3.6 11.662 7.228 17.5 10.828-4.382 7.055-8.71 14.137-13.078 21.206-.7-1.152-1.39-2.29-2.118-3.4-2.065 1.337-4.183 2.594-6.275 3.892q-5.86-3.611-11.66-7.283zm5.03 56.616l-20.306-3.256c1.522-9.809 4.752-29.4 4.752-29.4l20.293 3.283zm5.295-24.039l1.059-6.341c-1.893-.3-5.639-.94-5.639-.94-1.919-3.1-3.812-6.208-5.732-9.306 5.838-3.587 11.649-7.241 17.5-10.8 5.255 8.392 10.391 16.851 15.62 25.27-5.838 3.6-11.662 7.228-17.5 10.828-1.774-2.9-3.707-5.705-5.308-8.71z" class="prefix__cls-1" transform="translate(-111.241)"/>
        <path id="prefix__Path_14024" d="M223.762 157.222l-4.739 29.378-20.306-3.256c1.522-9.809 4.752-29.4 4.752-29.4z" class="prefix__cls-2" transform="translate(-113.535 -87.952)"/>
        <path id="prefix__Path_14025" d="M267.5 135.421c-5.838 3.6-11.662 7.227-17.5 10.828-1.774-2.9-3.706-5.705-5.308-8.71l1.059-6.341c-1.893-.3-5.639-.94-5.639-.94-1.919-3.1-3.812-6.208-5.732-9.306 5.838-3.587 11.649-7.241 17.5-10.8 5.258 8.391 10.395 16.848 15.62 25.269z" class="prefix__cls-2" transform="translate(-133.913 -62.934)"/>
        <path id="prefix__Path_14026" d="M222.738 27.1a44.356 44.356 0 0 1-3.852 6.447c-5.083 1.112-10.3 1.708-15.421 2.608q-2.482-14.674-4.779-29.36c6.777-1.059 13.542-2.2 20.306-3.27 1.208 7.858 2.608 15.695 3.746 23.575z" class="prefix__cls-2" transform="translate(-113.517 -2.011)"/>
        <path id="prefix__Path_14027" d="M267.486 49.985c-4.382 7.055-8.71 14.137-13.078 21.206-.7-1.152-1.39-2.29-2.118-3.4-2.065 1.337-4.183 2.594-6.275 3.892q-5.857-3.614-11.662-7.28c5.282-8.379 10.365-16.864 15.633-25.243 5.838 3.597 11.662 7.224 17.5 10.825z" class="prefix__cls-2" transform="translate(-133.895 -22.372)"/>
        <path id="prefix__Path_14028" d="M111.646 14.875a51.774 51.774 0 0 1 16.618-5.317 33.733 33.733 0 0 0-19.77 15.283 31.8 31.8 0 0 0-3.566 22.83 32.523 32.523 0 0 0 11.564 18.384 34.309 34.309 0 0 0 18.019 7.158q-2.383 14.22-4.659 28.471c-8.337-1.169-16.618-3.8-23.437-8.858a46.168 46.168 0 0 1-17.761-24.819A45.092 45.092 0 0 1 91.3 36.021a47.2 47.2 0 0 1 20.346-21.146z" transform="translate(-49.639 -5.461)" style="fill:#841921"/>
        <path id="prefix__Path_14029" d="M144.229 21.292a30.678 30.678 0 0 1 12.606-6.4c1.6 9.6 3.131 19.2 4.684 28.8a15.813 15.813 0 0 0-10.654 3.936c-4.229 3.688-6.217 10.107-4.012 15.389 2.317 5.393 7.816 8.878 13.482 9.809a29.6 29.6 0 0 1-18.53-8.893 28.57 28.57 0 0 1-8.21-20.281 29.5 29.5 0 0 1 10.634-22.36z" transform="translate(-76.328 -8.509)" style="fill:#e6c522"/>
    </g>
</svg>
