<svg xmlns="http://www.w3.org/2000/svg" width="192.498" height="197.641" viewBox="0 0 192.498 197.641">
  <g id="logo_white" data-name="logo white" transform="translate(-350.637 -598.797)">
    <path id="Path_55" data-name="Path 55" d="M436.491,611.641l9.188,55.838s-30.5,2.187-30.754,27.413,27.669,30.694,27.669,30.694-52.119-2.27-52.119-59.809C390.475,623.281,436.491,611.641,436.491,611.641Z" fill="#fff"/>
    <path id="Path_56" data-name="Path 56" d="M434.552,789.041l8.891-55.59s-59.715-3.772-59.715-65.972c0-49.611,50.668-61.555,50.668-61.555s-83.759,2.322-83.759,91.943C350.637,767.368,415,787.868,434.552,789.041Z" fill="#fff"/>
    <rect id="Rectangle_5" data-name="Rectangle 5" width="63.781" height="45.224" transform="translate(441.142 789.073) rotate(-80.628)" fill="#fff"/>
    <path id="Path_57" data-name="Path 57" d="M508.846,688.059l-38.133,24.312,10.126,15.882,18.632,2.91-3.244,19.656L505,766.151l38.133-24.312Z" fill="#fff"/>
    <path id="Path_58" data-name="Path 58" d="M510.028,683.353l6.434,10.091,25.306-40.984-38.323-24.012L469.58,682.5l21.364,13.386Z" fill="#fff"/>
    <path id="Path_59" data-name="Path 59" d="M492.637,640.91,486.091,598.8,441.4,605.743l9.8,63.025,26.57-4.13Z" transform="translate(-1)" fill="#fff"/>
  </g>
</svg>
