<svg id="refresh_1_" data-name="refresh (1)" xmlns="http://www.w3.org/2000/svg" width="17.424" height="18.765" viewBox="0 0 17.424 18.765">
  <g id="Group_8873" data-name="Group 8873" transform="translate(0)">
    <g id="Group_8872" data-name="Group 8872">
      <path id="Path_306" data-name="Path 306" d="M32.481,0a.67.67,0,0,0-.67.67V3.118A8.7,8.7,0,0,0,17.067,9.382a.67.67,0,1,0,1.34,0,7.372,7.372,0,0,1,12.81-4.976l-2.969.99a.671.671,0,1,0,.424,1.273l4.021-1.34a.67.67,0,0,0,.458-.638V.67A.67.67,0,0,0,32.481,0Z" transform="translate(-17.067)" fill="#313b5c"/>
    </g>
  </g>
  <g id="Group_8875" data-name="Group 8875" transform="translate(1.34 8.712)">
    <g id="Group_8874" data-name="Group 8874" transform="translate(0)">
      <path id="Path_307" data-name="Path 307" d="M66.612,221.867a.67.67,0,0,0-.67.67,7.372,7.372,0,0,1-12.81,4.976l2.969-.99a.671.671,0,1,0-.424-1.273l-4.021,1.34a.67.67,0,0,0-.458.638v4.021a.67.67,0,0,0,1.34,0V228.8a8.7,8.7,0,0,0,14.744-6.264A.67.67,0,0,0,66.612,221.867Z" transform="translate(-51.198 -221.867)" fill="#313b5c"/>
    </g>
  </g>
</svg>
